# xmcd
#
# Track frame offsets:
#	150
#	20224
#	39728
#	57754
#	74283
#	97266
#	120895
#	146569
#	166256
#	189834
#	207420
#	223305
#
# Disc length: 3244 seconds
#
# Revision: 4294901758
# Processed by: cddbd v1.5.2PL0 Copyright (c) Steve Scherf et al.
# Submitted via: EZCDAudioConverter 8.0.2.1
#
DISCID=b40caa0c
DTITLE=Various Artist - Top Hits 43. Mơ Một Tình Yêu
DYEAR=2010
DGENRE=Contemporary Pop
TTITLE0=Như Loan, Tóc Tiên - Tình còn đam mê
TTITLE1=Như Quỳnh, Minh Tuyết - Mơ Một Tình Yêu
TTITLE2=Mai Tiến Dũng, Hương Giang - Dịu dàng đến từng phút giây
TTITLE3=Mai Tiến Dũng, Hương Giang - Như vẫn còn đây
TTITLE4=Trịnh Lam, Quỳnh Vi - Vì sao ta mất nhau
TTITLE5=Trần Thái Hòa, Thế Sơn, Trịnh Lam - Belle
TTITLE6=Lương Tùng Quang, Hồ Lệ Thu - Tình chết theo mùa đông, Vết thương cuối
TTITLE6=cùng
TTITLE7=Tú Quyên, Diễm Sương - Cho em mãi được yêu
TTITLE8=Lưu Bích, Thủy Tiên - Một ngày không có anh, Nếu một ngày
TTITLE9=Bảo Hân - My Shining Star
TTITLE10=Lynda Trang Đài, Tommy Ngô - Chỉ còn đêm nay, Abanibi
TTITLE11=Như Loan, Tóc Tiên - Passion Remains
EXTD=
EXTT0=
EXTT1=
EXTT2=
EXTT3=
EXTT4=
EXTT5=
EXTT6=
EXTT7=
EXTT8=
EXTT9=
EXTT10=
EXTT11=
PLAYORDER=
